<?xml version="1.0" encoding="utf-8"?>
<!-- Generator: Adobe Illustrator 23.0.6, SVG Export Plug-In . SVG Version: 6.00 Build 0)  -->
<svg version="1.1" id="Layer_1" xmlns="http://www.w3.org/2000/svg" xmlns:xlink="http://www.w3.org/1999/xlink" x="0px" y="0px"
	 viewBox="0 0 512 512" style="enable-background:new 0 0 512 512;" xml:space="preserve">
<style type="text/css">
	.st0{fill:none;}
	.st1{fill:#D86422;}
</style>
<path class="st0" d="z"/>
<path class="st1" d="M48,256c0,114.9,93.1,208,208,208s208-93.1,208-208S370.9,48,256,48S48,141.1,48,256z M337.1,212.6
	c7.5-7.5,19.8-7.5,27.3,0c3.8,3.8,5.6,8.7,5.6,13.6s-1.9,9.9-5.7,13.7l-94.3,94c-7.6,6.9-19.3,6.7-26.6-0.6l-95.7-95.4
	c-7.5-7.5-7.6-19.7,0-27.3c7.5-7.5,19.7-7.6,27.3,0l81.1,81.9L337.1,212.6L337.1,212.6z"/>
<path class="st0" d="z"/>
</svg>
